<?xml version="1.0" encoding="UTF-8"?>
<!DOCTYPE svg PUBLIC "-//W3C//DTD SVG 1.1//EN" "http://www.w3.org/Graphics/SVG/1.1/DTD/svg11.dtd">
<!-- Creator: CorelDRAW -->
<svg xmlns="http://www.w3.org/2000/svg" xml:space="preserve" width="113.138mm" height="73.2981mm" version="1.1" style="shape-rendering:geometricPrecision; text-rendering:geometricPrecision; image-rendering:optimizeQuality; fill-rule:evenodd; clip-rule:evenodd"
viewBox="0 0 1869.15 1210.96"
 xmlns:xlink="http://www.w3.org/1999/xlink"
 xmlns:xodm="http://www.corel.com/coreldraw/odm/2003">
 <defs>
  <style type="text/css">
   <![CDATA[
    .fil0 {fill:#0DACEE}
   ]]>
  </style>
 </defs>
 <g id="Layer_x0020_1">
  <metadata id="CorelCorpID_0Corel-Layer"/>
  <path class="fil0" d="M1391.52 29.54c0.85,0.53 1.73,1.16 2.47,1.78 7.83,5.77 14.94,12.51 21.11,20.04 6.25,7.64 11.51,16.06 15.73,25.19l427.61 966.03c13,28.24 14.17,60.53 3.45,89.69 -10.78,29.31 -32.53,53.06 -61.02,66.23l-1.77 0.79c-27.82,12.48 -59.39,13.17 -87.94,2.67 -29.3,-10.77 -53.07,-32.54 -66.26,-61.07l-320.88 -724.91 -321.24 725.99c-11.17,24.18 -30.13,43.64 -53.92,55.57 -23.5,11.79 -50.38,15.51 -76.18,10.29 -14.15,-2.19 -27.83,-6.94 -40.28,-14.02 -12.51,-7.11 -23.59,-16.45 -32.82,-27.75l-770.23 -974.24c-19.71,-24.11 -28.93,-55.13 -25.82,-86.1 3.09,-30.84 18.14,-59 41.92,-78.88l0.5 -0.42c24.12,-19.72 55.14,-28.93 86.11,-25.83 31.06,3.11 59.52,18.22 79.42,42.56l292.58 370.12 292.7 -370.27c19.78,-24.19 48.23,-39.3 79.3,-42.41 30.98,-3.1 62.1,6 86.16,25.87l0.38 0.32c23.95,19.78 38.9,48.07 41.99,78.95 3.1,30.97 -6.09,62 -25.83,86.11 -110.62,135.11 -216.69,273.88 -324.9,410.91l211.89 268.01 351.5 -794.38c4.15,-8.97 9.4,-17.39 15.65,-25.03 6.19,-7.56 13.33,-14.31 21.19,-20.1 0.65,-0.52 1.3,-0.95 2,-1.45 2.93,-2.08 5.94,-4.02 9.05,-5.82 3.12,-1.81 6.32,-3.47 9.7,-5.03l1.76 -0.79c7.12,-3.2 14.58,-5.59 22.21,-7.26 8.27,-1.81 16.72,-2.67 25.18,-2.67 8.46,0 16.91,0.86 25.18,2.67 7.63,1.67 15.09,4.06 22.21,7.26l1.87 0.85c3.27,1.51 6.47,3.17 9.59,4.98 2.97,1.72 5.86,3.57 8.67,5.54zm152.89 1065.86c-0.72,30.91 -13.6,60.08 -35.82,81.59 -22.36,21.63 -52.23,33.6 -83.37,33.03 -9.26,0.81 -28.2,0.46 -32.41,0.49 -23.69,0.17 -47.38,0.28 -71.07,0.34 -23.19,0.06 -46.39,0.1 -69.59,-0.03 -7.29,-0.04 -26.86,0.63 -35.18,-0.72 -30.84,-0.77 -59.93,-13.65 -81.39,-35.82 -21.64,-22.36 -33.62,-52.25 -33.15,-83.12l-0.08 -8.34 0.52 -0.52c2.47,-28.14 15.03,-54.35 35.4,-74.06 22.36,-21.63 52.22,-33.6 83.36,-33.03 9.26,-0.81 28.2,-0.46 32.41,-0.49 23.69,-0.17 47.39,-0.28 71.08,-0.34 23.19,-0.06 46.39,-0.1 69.59,0.03 7.29,0.04 26.86,-0.63 35.18,0.72 30.84,0.77 59.93,13.65 81.39,35.82 20.8,21.5 32.66,49.93 33.14,79.76l0.56 0.83 -0.57 3.86zm-1508.7 80.9c-19.97,-19.31 -32.33,-45.06 -35.12,-72.8 -3.1,-30.97 6.11,-62 25.71,-85.97l128.49 -162.52c19.78,-24.19 48.23,-39.3 79.3,-42.41 30.97,-3.1 62,6.12 86.2,25.9l0.42 0.35c23.82,19.85 38.83,48.04 41.92,78.88 3.1,30.97 -6.11,61.99 -25.71,85.96l-128.49 162.53c-19.78,24.19 -48.24,39.3 -79.3,42.41 -30.97,3.1 -62,-6.11 -86.11,-25.83l-7.3 -5.97 0 -0.53zm1255.7 -1121.23l-0.57 0.27c-1.97,0.91 -3.89,1.94 -5.77,3.03 -2.04,1.18 -4.03,2.45 -5.79,3.71l-1.44 1.06c-5.25,3.86 -10.03,8.35 -14.16,13.39 -4.1,5.01 -7.57,10.52 -10.21,16.2l-378 854.31 -272.19 -344.27 5.6 -7.09c112.94,-143.05 224.65,-287.07 339.1,-428.92 12.95,-16.06 19.16,-36.55 17.1,-57.09 -2.06,-20.53 -11.94,-39.4 -28.01,-52.42l-0.38 -0.31c-15.92,-12.9 -36.32,-18.85 -56.69,-16.81 -20.56,2.06 -39.36,12.05 -52.34,27.91l-323.58 409.25 -323.43 -409.11c-13.11,-16 -31.92,-26 -52.49,-28.05 -20.34,-2.04 -40.77,3.84 -56.65,16.79l-0.4 0.32c-16.03,13.06 -25.98,31.89 -28.04,52.44 -2.06,20.51 4.02,41.03 17.19,57.15l770.18 974.23c6.04,7.34 13.33,13.54 21.59,18.24 8.3,4.73 17.45,7.86 26.89,9.29l0.35 0.05 0.81 0.17c17.24,3.72 35.29,1.14 51.01,-6.75 15.69,-7.87 28.18,-20.68 35.49,-36.42l357.44 -807.84 357.09 806.73c8.69,18.72 24.4,33.02 43.75,40.13 19.32,7.1 40.74,6.48 59.43,-2.26l0.46 -0.22c18.6,-8.7 32.77,-24.37 39.84,-43.61 7.12,-19.35 6.38,-40.75 -2.36,-59.65l-427.6 -966c-2.72,-5.87 -6.18,-11.37 -10.28,-16.38 -4.11,-5.02 -8.82,-9.55 -14.08,-13.35l-1.51 -1.09c-1.87,-1.35 -3.82,-2.58 -5.81,-3.73 -1.86,-1.08 -3.75,-2.08 -5.7,-2.99l-0.67 -0.31c-5.07,-2.36 -10.39,-4.13 -15.84,-5.32 -5.49,-1.2 -11.11,-1.81 -16.73,-1.81 -5.62,0 -11.24,0.61 -16.73,1.81 -5.47,1.19 -10.79,2.98 -15.87,5.33zm213.33 1037.94c0.11,-20.35 -7.81,-39.79 -21.96,-54.42 -14.34,-14.82 -33.77,-23.42 -54.42,-23.92 -10.07,1.35 -27.57,0.88 -32.54,0.95 -23.67,0.31 -47.35,0.48 -71.02,0.56 -22.8,0.08 -45.62,0.09 -68.43,-0.15 -8.32,-0.09 -27.25,0.41 -36.26,-1.23 -20.26,-0.05 -39.6,7.86 -54.17,21.96 -14.6,14.12 -23.16,33.2 -23.77,53.5 0.14,1.32 0.13,2.73 -0.02,4.13 0.43,19.61 8.32,38.18 21.95,52.26 14.34,14.82 33.76,23.42 54.43,23.99 10.15,-1.34 27.41,-0.76 32.32,-0.81 23.74,-0.28 47.48,-0.46 71.22,-0.57 22.82,-0.1 45.67,-0.16 68.49,0.04 8.23,0.07 27.25,-0.48 36.21,1.14 20.27,0.06 39.62,-7.86 54.19,-21.96 14.3,-13.84 22.81,-32.42 23.72,-52.26l-0.32 -0.85 0.4 -2.35zm-1209.89 -223.98c-15.96,-12.94 -36.4,-18.97 -56.83,-16.93 -20.56,2.06 -39.36,12.05 -52.34,27.91l-128.49 162.52c-13.06,15.98 -19.13,36.51 -17.08,57.02 2.06,20.56 12.03,39.37 28.06,52.45l0.61 0.5c15.89,12.73 36.17,18.62 56.42,16.59 20.56,-2.06 39.36,-12.05 52.34,-27.91l128.51 -162.5c13.04,-15.99 19.12,-36.52 17.07,-57.04 -2.06,-20.53 -11.95,-39.39 -28.02,-52.42l-0.25 -0.2z"/>
 </g>
</svg>
