<svg xmlns="http://www.w3.org/2000/svg" version="1.1" xmlns:xlink="http://www.w3.org/1999/xlink" width="512" height="512" x="0" y="0" viewBox="0 0 512 512" style="enable-background:new 0 0 512 512" xml:space="preserve" class=""><g><path d="M295.809 121.339a8 8 0 0 1 8-8h61.849a8 8 0 0 1 0 16h-61.849a8 8 0 0 1-8-8zm8 115.729h61.849a8 8 0 0 0 0-16h-61.849a8 8 0 0 0 0 16zm0-53.865h61.849a8 8 0 0 0 0-16h-61.849a8 8 0 0 0 0 16zm-55.172 20.203a8.004 8.004 0 0 1-7.954 8.851h-125a7.997 7.997 0 0 1-7.954-8.851c2.842-26.558 20.031-48.29 43.394-57.905-7.818-7.269-12.722-17.633-12.722-29.126 0-21.937 17.847-39.783 39.783-39.783s39.783 17.847 39.783 39.783c0 11.493-4.904 21.857-12.722 29.126 23.362 9.617 40.55 31.348 43.392 57.905zm-70.464-63.247h.02c13.11-.005 23.773-10.673 23.773-23.783 0-13.114-10.669-23.783-23.783-23.783S154.4 103.262 154.4 116.376c0 13.111 10.664 23.778 23.773 23.783zm52.873 56.098c-6.465-23.382-27.809-40.093-52.852-40.098h-.022c-25.044.005-46.389 16.716-52.854 40.098zm-145.505 32.81V59.783a8 8 0 0 1 8-8h169.284a8 8 0 0 1 8 8v169.284a8 8 0 0 1-8 8H93.541a8 8 0 0 1-8-8zm16-8h153.284V67.783H101.541zm368.995 11.179-46.683 80.857v173.221c0 9.747-7.931 17.677-17.678 17.677H55.186c-9.747 0-17.678-7.93-17.678-17.677V25.677C37.508 15.93 45.438 8 55.186 8h296.656c4.789 0 9.111 1.79 12.499 5.177l54.336 54.335c3.387 3.387 5.177 7.709 5.177 12.499v106.897c8.657-4.47 19.341-4.594 28.387.629l7.473 4.314c14.119 8.153 18.975 26.274 10.822 40.395zM317.195 430.07l20.834-12.029-20.834-12.029zM440.09 252.981l-8.562-4.943-88.988 154.134 8.561 4.943zm-22.417-12.942-8.561-4.943-88.989 154.134 8.561 4.943zM363.851 35.314v32.689h32.689zm44.003 305.501-46.896 81.227a7.999 7.999 0 0 1-2.928 2.928l-42.644 24.62a7.982 7.982 0 0 1-6.19 2.935H95.704a8 8 0 0 1 0-16h205.491V398.66H95.704a8 8 0 0 1 0-16h209.737l21.861-37.864H95.704a8 8 0 0 1 0-16H336.54l21.861-37.864H95.704a8 8 0 0 1 0-16h269.953c.639 0 1.256.083 1.852.224l40.345-69.879V84.003h-47.165c-7.079 0-12.838-5.759-12.838-12.838V24H55.186a1.7 1.7 0 0 0-1.678 1.677v460.646A1.7 1.7 0 0 0 55.186 488h350.99a1.7 1.7 0 0 0 1.678-1.677zm43.859-135.107-7.473-4.314c-6.478-3.741-14.796-1.514-18.538 4.967l-8.59 14.879 30.978 17.886 8.591-14.879c3.741-6.482 1.512-14.798-4.968-18.539z" fill="#ad1f24" opacity="1" data-original="#000000" class=""></path></g></svg>