<svg xmlns="http://www.w3.org/2000/svg" version="1.1" xmlns:xlink="http://www.w3.org/1999/xlink" width="512" height="512" x="0" y="0" viewBox="0 0 512 512" style="enable-background:new 0 0 512 512" xml:space="preserve" class=""><g><path d="M256 213.896c-23.217 0-42.104 18.888-42.104 42.104s18.888 42.104 42.104 42.104 42.104-18.888 42.104-42.104-18.887-42.104-42.104-42.104zm0 68.208c-14.395 0-26.104-11.71-26.104-26.104s11.71-26.104 26.104-26.104 26.104 11.71 26.104 26.104-11.709 26.104-26.104 26.104zm92.678-35.785a8 8 0 0 0-6.39-7.836l-19.76-4.062a69.51 69.51 0 0 0-4.227-10.204l11.101-16.845a8 8 0 0 0-1.022-10.059l-13.693-13.692a8 8 0 0 0-10.059-1.023l-16.845 11.101a69.39 69.39 0 0 0-10.203-4.227l-4.062-19.76a8 8 0 0 0-7.836-6.389h-19.363a8 8 0 0 0-7.836 6.389l-4.062 19.76a69.465 69.465 0 0 0-10.204 4.227l-16.845-11.101a8.004 8.004 0 0 0-10.06 1.023l-13.691 13.692a8 8 0 0 0-1.022 10.059l11.101 16.846a69.453 69.453 0 0 0-4.227 10.203l-19.761 4.062a8 8 0 0 0-6.389 7.836v19.363a8 8 0 0 0 6.389 7.836l19.761 4.062a69.544 69.544 0 0 0 4.227 10.203l-11.101 16.846a8 8 0 0 0 1.022 10.059l13.691 13.692a8.002 8.002 0 0 0 10.06 1.023l16.846-11.101a69.453 69.453 0 0 0 10.203 4.227l4.062 19.76a8 8 0 0 0 7.836 6.389h19.363a8 8 0 0 0 7.836-6.389l4.062-19.76a69.453 69.453 0 0 0 10.203-4.227l16.845 11.101a8 8 0 0 0 10.059-1.023l13.693-13.692a8 8 0 0 0 1.022-10.059l-11.101-16.846a69.544 69.544 0 0 0 4.227-10.203l19.76-4.062a8 8 0 0 0 6.39-7.836zm-16 12.84-18.127 3.727a8 8 0 0 0-6.161 5.941 53.548 53.548 0 0 1-6.275 15.149 8.002 8.002 0 0 0 .156 8.558l10.183 15.453-4.468 4.467-15.452-10.183a8.003 8.003 0 0 0-8.56-.155 53.51 53.51 0 0 1-15.147 6.275 7.998 7.998 0 0 0-5.94 6.161l-3.727 18.126h-6.318l-3.726-18.126a7.998 7.998 0 0 0-5.94-6.161 53.531 53.531 0 0 1-15.149-6.276 8.003 8.003 0 0 0-8.559.155l-15.452 10.183-4.468-4.467 10.183-15.453a8 8 0 0 0 .156-8.558 53.535 53.535 0 0 1-6.275-15.15 8.003 8.003 0 0 0-6.161-5.94l-18.126-3.726v-6.318l18.126-3.726a8.003 8.003 0 0 0 6.161-5.94 53.54 53.54 0 0 1 6.275-15.15 8.002 8.002 0 0 0-.156-8.558l-10.183-15.453 4.468-4.467 15.452 10.183a8.005 8.005 0 0 0 8.56.155 53.53 53.53 0 0 1 15.148-6.276 7.997 7.997 0 0 0 5.94-6.161l3.726-18.126h6.318l3.727 18.126a8 8 0 0 0 5.94 6.161 53.537 53.537 0 0 1 15.148 6.276 8.003 8.003 0 0 0 8.559-.155l15.452-10.183 4.468 4.467-10.183 15.453a8 8 0 0 0-.155 8.559 53.48 53.48 0 0 1 6.274 15.148 8 8 0 0 0 6.161 5.941l18.127 3.727zM96.581 216.162v15.362c0 9.085 7.392 16.477 16.477 16.477h25.405a8 8 0 0 1 0 16h-25.405c-17.907 0-32.477-14.569-32.477-32.477v-15.362a8 8 0 0 1 16 0zM264 386.853v45.961c0 17.907-14.569 32.476-32.477 32.476h-43.711a8 8 0 0 1 0-16h43.711c9.085 0 16.477-7.391 16.477-16.476v-45.961a8 8 0 0 1 16 0zm-16-261.706v-45.96c0-17.907 14.569-32.476 32.477-32.476h69.073a8 8 0 0 1 0 16h-69.073c-9.085 0-16.477 7.391-16.477 16.476v45.961a8 8 0 1 1-16-.001zm167.419 170.69.001-15.361c0-9.085-7.392-16.476-16.477-16.476h-25.406a8 8 0 0 1 0-16h25.406c17.907 0 32.477 14.569 32.477 32.477l-.001 15.361a8 8 0 0 1-8 8h-.001a8.001 8.001 0 0 1-7.999-8.001zm48.964 103.436a176.514 176.514 0 0 0-19.996-3.758c10.535-8.585 17.517-23.425 17.517-40.273 0-15.926-6.232-25.104-11.461-29.999-6.795-6.361-16.14-9.723-27.023-9.723s-20.229 3.362-27.023 9.723c-5.229 4.895-11.461 14.073-11.461 29.999 0 16.807 6.948 31.617 17.439 40.211a163.994 163.994 0 0 0-19.984 3.837c-22.06 5.671-34.712 18.492-34.712 35.173v51.833c0 9.762 7.941 17.704 17.703 17.704h116.076c9.762 0 17.704-7.942 17.704-17.704v-51.833c-.001-16.881-12.677-29.707-34.779-35.19zm-40.964-67.753c10.257 0 22.484 4.116 22.484 23.722 0 17.381-10.297 32.065-22.484 32.065s-22.484-14.684-22.484-32.065c0-19.606 12.227-23.722 22.484-23.722zm59.742 154.776c0 .924-.78 1.704-1.704 1.704h-13.079v-39.391a8 8 0 0 0-16 0V488H394.46v-39.391a8 8 0 0 0-16 0V488h-13.079c-.923 0-1.703-.78-1.703-1.704v-51.833c0-11.44 12.342-17.015 22.696-19.677a146.946 146.946 0 0 1 36.697-4.651c12.399 0 24.915 1.556 37.46 4.667 8.451 2.097 22.63 7.438 22.63 19.66zm-353.617-87.023a176.497 176.497 0 0 0-19.995-3.758c10.534-8.585 17.517-23.426 17.517-40.273 0-15.926-6.232-25.104-11.461-29.999-6.795-6.361-16.14-9.723-27.023-9.723s-20.229 3.362-27.023 9.723c-5.229 4.895-11.461 14.073-11.461 29.999 0 16.806 6.947 31.617 17.438 40.211a163.994 163.994 0 0 0-19.984 3.837c-22.06 5.672-34.712 18.492-34.712 35.173v51.833c0 9.762 7.942 17.704 17.704 17.704H146.62c9.762 0 17.703-7.942 17.703-17.704v-51.833c-.001-16.881-12.677-29.707-34.779-35.19zM88.581 331.52c10.257 0 22.484 4.116 22.484 23.722 0 17.381-10.297 32.065-22.484 32.065s-22.484-14.684-22.484-32.065c0-19.606 12.227-23.722 22.484-23.722zm59.741 154.776c0 .924-.78 1.704-1.703 1.704H133.54v-39.391a8 8 0 0 0-16 0V488H59.621v-39.391a8 8 0 0 0-16 0V488H30.543c-.924 0-1.704-.78-1.704-1.704v-51.833c0-11.44 12.342-17.015 22.696-19.677a146.948 146.948 0 0 1 36.698-4.651c12.398 0 24.915 1.556 37.459 4.667 8.451 2.096 22.63 7.438 22.63 19.66zM464.383 91.753a176.514 176.514 0 0 0-19.996-3.758c10.534-8.585 17.517-23.426 17.517-40.274 0-15.926-6.232-25.104-11.461-29.999C443.647 11.362 434.303 8 423.419 8s-20.229 3.362-27.023 9.723c-5.229 4.895-11.461 14.073-11.461 29.999 0 16.807 6.947 31.617 17.438 40.211a163.978 163.978 0 0 0-19.983 3.837c-22.06 5.671-34.712 18.492-34.712 35.173v51.833c0 9.762 7.941 17.704 17.703 17.704h116.076c9.762 0 17.704-7.942 17.704-17.704v-51.833c0-16.881-12.676-29.707-34.778-35.19zM423.419 24c10.257 0 22.484 4.115 22.484 23.722 0 17.381-10.297 32.065-22.484 32.065s-22.484-14.684-22.484-32.065c0-19.607 12.227-23.722 22.484-23.722zm59.742 154.776c0 .924-.78 1.704-1.704 1.704h-13.079v-39.391a8 8 0 0 0-16 0v39.391H394.46v-39.391a8 8 0 0 0-16 0v39.391h-13.079c-.923 0-1.703-.78-1.703-1.704v-51.833c0-11.44 12.342-17.015 22.696-19.677a146.946 146.946 0 0 1 36.697-4.651c12.399 0 24.915 1.556 37.46 4.668 8.451 2.097 22.63 7.438 22.63 19.66zM30.543 196.48h116.076c9.762 0 17.703-7.942 17.703-17.704v-51.833c0-16.881-12.676-29.707-34.778-35.189a176.72 176.72 0 0 0-19.995-3.758c10.534-8.585 17.517-23.426 17.517-40.274 0-15.926-6.232-25.104-11.461-29.999C108.81 11.362 99.465 8 88.581 8s-20.229 3.362-27.023 9.723c-5.229 4.895-11.461 14.073-11.461 29.999 0 16.807 6.947 31.617 17.438 40.211a163.994 163.994 0 0 0-19.984 3.837c-22.06 5.672-34.712 18.492-34.712 35.173v51.833c0 9.762 7.942 17.704 17.704 17.704zM88.581 24c10.257 0 22.484 4.115 22.484 23.722 0 17.381-10.297 32.065-22.484 32.065S66.097 65.103 66.097 47.722C66.097 28.115 78.324 24 88.581 24zM28.839 126.943c0-11.44 12.342-17.015 22.696-19.677a146.948 146.948 0 0 1 36.698-4.651c12.398 0 24.915 1.556 37.459 4.668 8.451 2.096 22.63 7.438 22.63 19.66v51.833c0 .924-.78 1.704-1.703 1.704H133.54v-39.391a8 8 0 0 0-16 0v39.391H59.621v-39.391a8 8 0 0 0-16 0v39.391H30.543c-.924 0-1.704-.78-1.704-1.704z" fill="#ad1f24" opacity="1" data-original="#000000"></path></g></svg>