<svg xmlns="http://www.w3.org/2000/svg" version="1.1" xmlns:xlink="http://www.w3.org/1999/xlink" width="512" height="512" x="0" y="0" viewBox="0 0 512 512" style="enable-background:new 0 0 512 512" xml:space="preserve" class=""><g><path d="M409.971 264.76a7.498 7.498 0 0 0-8.729 6.024 7.5 7.5 0 0 0 6.024 8.729c42.391 7.773 73.157 44.715 73.157 87.84 0 43.348-31.046 79.576-72.068 87.63-.081.013-.163.018-.244.033a89.736 89.736 0 0 1-16.994 1.643c-49.244 0-89.307-40.063-89.307-89.306 0-43.687 31.464-80.196 73.158-87.84a7.5 7.5 0 0 0 6.024-8.729c-.747-4.075-4.661-6.774-8.729-6.024-23.905 4.383-44.629 16.722-59.689 33.966l-46.633-18.06v-26.028c16.899-12.937 28.552-32.38 31.197-54.557 20.085-.891 35.04-16.961 35.04-36.067a35.858 35.858 0 0 0-9.035-23.815v-32.917C323.145 48.126 275.019 0 215.865 0S108.584 48.126 108.584 107.281v33.769c-5.848 6.463-9.031 14.47-9.031 22.963 0 19.085 14.924 35.174 35.035 36.066 2.635 22.317 14.414 42.568 32.965 55.815v24.771l-105.394 40.86a8.255 8.255 0 0 0-.141.056c-1.855.763-45.443 19.268-45.443 70.214V495.01c0 9.368 7.621 16.99 16.99 16.99h366.562c9.323 0 16.908-7.584 16.908-16.908v-26.69c45.018-11.554 78.389-52.476 78.389-101.047 0-50.369-35.939-93.516-85.453-102.595zm-122.092 40.487-27.019 54.149c-.366-.26-7.145-5.076-33.253-23.618l33.222-41.008 27.05 10.477zm-51.783 54.962-7.725 11.627h-23.187l-7.724-11.627 19.318-13.72 19.318 13.72zm-53.541-77.134v-18.72c10.135 4.36 22.157 6.905 34.373 6.905 11.771 0 23.427-2.578 34.014-7.518v19.404l-34.165 42.172-34.222-42.243zm127.368-103.216c-3.41 2.933-7.606 4.68-12.191 5.135v-41.956c19.21 1.86 25.916 25.017 12.191 36.821zm-175.922 5.135c-11.532-1.142-19.446-10.377-19.446-20.98 0-10.631 9.23-18.96 19.446-20.635v41.615zm.245-56.772c-3.495.319-7.65 1.351-10.661 2.524v-23.465c0-50.883 41.396-92.28 92.279-92.28 50.882 0 92.28 41.396 92.28 92.28v22.807a37.658 37.658 0 0 0-10.412-2.104c0-9.014 1.096-6.449-25.037-34.485-2.089-2.242-4.54-5.531-9.724-6.62a14.26 14.26 0 0 0-10.76 2.032c-29.473 19.253-66.459 30.061-101.985 27.733-8.682-.573-14.642 4.364-15.98 11.578zm14.756 62.235v-58.856c38.166 2.556 78.434-8.742 110.917-29.81 13.554 14.563 20.845 22.121 22.813 24.656 0 74.817.017 61.504-.042 65.655-.875 35.358-29.861 64.157-65.762 64.157-39.94.001-67.926-30.793-67.926-65.802zm23.679 104.332 33.229 41.016-33.217 23.593-27.019-54.149 27.007-10.46zM101.01 497v-89.216c0-4.142-3.357-7.5-7.5-7.5s-7.5 3.358-7.5 7.5V497H33.565a1.992 1.992 0 0 1-1.989-1.989V391.797c0-40.352 34.082-55.462 36.1-56.32l63.946-24.791 28.13 56.376.001.001a14.058 14.058 0 0 0 9.18 7.37c7.31 1.828 11.663-2.248 16.289-5.533l8.049 12.114L173.64 497h-72.63zm231.595-.001h-72.69l-6.732-39.777a7.5 7.5 0 1 0-14.789 2.503l6.309 37.274h-55.848l18.646-110.163h18.557l6.412 37.886a7.497 7.497 0 0 0 8.647 6.144 7.5 7.5 0 0 0 6.143-8.646l-6.974-41.206 8.049-12.114 4.722 3.354c7.045 5.005 16.891 2.532 20.745-5.19h.001l28.128-56.373 1.28.495a104.295 104.295 0 0 0-16.4 56.17c0 35.845 18.177 67.523 45.795 86.306v43.337zm69.431-1.906a1.909 1.909 0 0 1-1.907 1.907h-52.523v-34.859c13.251 6.107 27.99 9.522 43.513 9.522 3.687 0 7.328-.195 10.918-.57v24z" fill="#ad1f24" opacity="1" data-original="#000000"></path><path d="M426.617 345.192a7.501 7.501 0 0 0-10.607-.136l-29.487 28.742-12.353-12.108a7.5 7.5 0 0 0-10.501 10.714l17.589 17.237a7.479 7.479 0 0 0 5.25 2.144 7.477 7.477 0 0 0 5.235-2.129l34.737-33.858a7.5 7.5 0 0 0 .137-10.606z" fill="#ad1f24" opacity="1" data-original="#000000"></path><path d="M391.118 289.43c-42.968 0-77.925 34.957-77.925 77.925s34.957 77.925 77.925 77.925 77.925-34.957 77.925-77.925c0-42.968-34.957-77.925-77.925-77.925zm0 140.848c-34.696 0-62.924-28.228-62.924-62.924s28.227-62.924 62.924-62.924c34.696 0 62.924 28.228 62.924 62.924s-28.228 62.924-62.924 62.924z" fill="#ad1f24" opacity="1" data-original="#000000"></path></g></svg>