<svg xmlns="http://www.w3.org/2000/svg" version="1.1" xmlns:xlink="http://www.w3.org/1999/xlink" width="512" height="512" x="0" y="0" viewBox="0 0 64 64" style="enable-background:new 0 0 512 512" xml:space="preserve" class=""><g><path d="M11 23a9 9 0 1 0 9 9 9 9 0 0 0-9-9zm2 15.71a7 7 0 0 1-4 0V35a1 1 0 0 1 1-1h2a1 1 0 0 1 1 1zM10 30a1 1 0 1 1 1 1 1 1 0 0 1-1-1zm5 7.74V35a3 3 0 0 0-2-2.81A3 3 0 0 0 14 30a3 3 0 0 0-6 0 3 3 0 0 0 1 2.19A3 3 0 0 0 7 35v2.74a7 7 0 1 1 8 0zM53 23a9 9 0 1 0 9 9 9 9 0 0 0-9-9zm0 16a7 7 0 1 1 7-7 7 7 0 0 1-7 7zM41.94 9.6a1.78 1.78 0 0 0-.21-1.42l-1.45-2.4a1.94 1.94 0 0 0-2.57-.67l-.48.27a8.83 8.83 0 0 0-1.88-1v-.52A1.88 1.88 0 0 0 33.45 2h-2.9a1.88 1.88 0 0 0-1.9 1.86v.48a7.06 7.06 0 0 0-1.83 1.06l-.53-.29a1.94 1.94 0 0 0-2.58.67l-1.44 2.4a1.78 1.78 0 0 0-.21 1.42 1.89 1.89 0 0 0 .94 1.16l.44.24a8.36 8.36 0 0 0 0 2l-.44.24a1.89 1.89 0 0 0-.91 1.16 1.78 1.78 0 0 0 .21 1.42l1.45 2.4a1.93 1.93 0 0 0 2.57.67l.48-.27a8.83 8.83 0 0 0 1.88 1v.48a1.88 1.88 0 0 0 1.87 1.9h2.9a1.88 1.88 0 0 0 1.9-1.86v-.48a7.06 7.06 0 0 0 1.83-1.06l.53.29a2 2 0 0 0 2.58-.67l1.44-2.4a1.78 1.78 0 0 0 .21-1.42 1.89 1.89 0 0 0-.94-1.16l-.41-.24a8.36 8.36 0 0 0 0-2l.44-.24a1.89 1.89 0 0 0 .91-1.16zM38.65 12a6.18 6.18 0 0 1-.06.85 1.85 1.85 0 0 0 .95 1.86l.4.21-1.32 2.19-.47-.26A2 2 0 0 0 36 17a6.42 6.42 0 0 1-1.47.82 1.89 1.89 0 0 0-1.22 1.74V20h-2.7v-.44a1.89 1.89 0 0 0-1.22-1.74A6.42 6.42 0 0 1 28 17a2 2 0 0 0-2.11-.15l-.47.26-1.32-2.19.4-.21a1.85 1.85 0 0 0 .95-1.86 6.05 6.05 0 0 1 0-1.7 1.85 1.85 0 0 0-.95-1.86l-.4-.21 1.32-2.19.47.26A2 2 0 0 0 28 7a6.42 6.42 0 0 1 1.47-.82 1.89 1.89 0 0 0 1.22-1.74V4h2.7v.44a1.89 1.89 0 0 0 1.22 1.74A6.42 6.42 0 0 1 36 7a2 2 0 0 0 2.11.15l.47-.26 1.32 2.19-.4.21a1.85 1.85 0 0 0-.95 1.86 6.18 6.18 0 0 1 .1.85z" fill="#ad1f24" opacity="1" data-original="#000000"></path><path d="M32 7a5 5 0 1 0 5 5 5 5 0 0 0-5-5zm0 8a3 3 0 1 1 3-3 3 3 0 0 1-3 3zM52 32.46l-2.55 1.71 1.1 1.66 3-2A1 1 0 0 0 54 33v-6h-2zM16 51h3v2h-3zM12 49h-2v3a1 1 0 0 0 1 1h3v-2h-2zM37 46h-1.85a5.5 5.5 0 1 0-6.3 0H27a4 4 0 0 0-4 4v8.44a3 3 0 0 0 3.73 2.91l3.15-.78 7.7 1.1H38a3 3 0 0 0 2-.67 3 3 0 0 0 1-2.27V50a4 4 0 0 0-4-4zm-8.5-4.5A3.5 3.5 0 1 1 32 45a3.5 3.5 0 0 1-3.5-3.5zM39 58.69a1 1 0 0 1-.35.76 1 1 0 0 1-.79.23l-2.86-.4 1.24-.28a1 1 0 0 0 .76-1v-7h-2v3.22l-6 .66V51h-2v5a1 1 0 0 0 .33.75A1 1 0 0 0 28 57h.11l6.89-.77v1l-5.35 1.35h-.07l-3.34.83a1 1 0 0 1-.86-.18 1 1 0 0 1-.38-.79V50a2 2 0 0 1 2-2h10a2 2 0 0 1 2 2zM10 44h2v3h-2zM16 11h3v2h-3zM12 13h2v-2h-3a1 1 0 0 0-1 1v3h2zM10 17h2v3h-2zM45 11h3v2h-3zM54 12a1 1 0 0 0-1-1h-3v2h2v2h2zM52 17h2v3h-2zM45 51h3v2h-3zM52 51h-2v2h3a1 1 0 0 0 1-1v-3h-2zM52 44h2v3h-2z" fill="#ad1f24" opacity="1" data-original="#000000"></path></g></svg>