<svg xmlns="http://www.w3.org/2000/svg" version="1.1" xmlns:xlink="http://www.w3.org/1999/xlink" width="512" height="512" x="0" y="0" viewBox="0 0 512 512" style="enable-background:new 0 0 512 512" xml:space="preserve" class=""><g><path d="M459.469 339.94c-4.089-6.829-20.825-27.13-64.466-1.713l-75.084 43.732c-2.691 1.567-5.417 2.795-8.219 3.689a32.55 32.55 0 0 0 2.033-5.556c4.023-15.014-4.878-30.682-20.264-35.669a8.18 8.18 0 0 0-1.047-.263c-21.468-3.872-42.708-11.551-59.773-17.721-5.957-2.153-11.583-4.188-16.379-5.742-19.723-6.401-37.429 1.45-52.147 9.973l-54.692 31.666-4.602-8.131c-5.174-9.144-16.824-12.371-25.969-7.197l-21.067 11.923c-9.143 5.175-12.372 16.824-7.197 25.969l61.936 109.435c2.501 4.42 6.584 7.604 11.498 8.966 1.699.471 3.424.703 5.138.703a18.89 18.89 0 0 0 9.333-2.471l21.066-11.922c4.419-2.501 7.603-6.584 8.964-11.498 1.362-4.913.734-10.052-1.766-14.471l-5.733-10.13 11.105-6.411 95.631 25.625c5.424 1.453 10.82 2.176 16.128 2.176 10.738-.001 21.114-2.957 30.6-8.796l136.259-83.903c13.011-8.01 17.164-28.155 8.714-42.263zm-306.356 133.9a3.04 3.04 0 0 1-1.426 1.846l-21.067 11.923c-.944.534-1.857.399-2.317.272-.46-.128-1.312-.482-1.846-1.427L64.521 377.02c-.815-1.442-.287-3.349 1.154-4.165l21.066-11.922c.461-.261.97-.385 1.475-.385 1.074 0 2.134.558 2.688 1.538l61.936 109.437c.535.943.401 1.856.273 2.317zm289.254-105.263L306.109 452.48c-10.481 6.451-21.986 8.064-34.198 4.79l-98.833-26.482a7.981 7.981 0 0 0-6.071.8l-13.856 8-35.84-63.326 54.828-31.744c12.255-7.095 25.486-13.047 39.194-8.6 4.543 1.474 9.795 3.372 15.875 5.57 17.48 6.32 39.197 14.172 61.784 18.312 7.116 2.535 11.095 9.398 9.285 16.152-1.923 7.176-7.269 10.308-15.877 9.321-10.972-2.261-21.426-5.243-32.485-8.401-5.282-1.509-10.745-3.068-16.364-4.574a8 8 0 0 0-4.141 15.455c5.493 1.472 10.891 3.013 16.111 4.504 11.481 3.279 22.326 6.376 34.029 8.769.052.011.104.014.156.024.055.01.107.026.162.035l9.341 1.519c14.283 2.285 26.961.054 38.761-6.817l75.084-43.732c20.898-12.172 36.856-13.627 42.687-3.893 3.977 6.635 2.274 16.939-3.374 20.415zM92.196 380.905a7.522 7.522 0 1 1-14.886 2.176 7.522 7.522 0 0 1 14.886-2.176zm26.281-189.267 20.685 7.962c3 11.046 7.39 21.635 13.09 31.578l-9.002 20.269a8 8 0 0 0 1.654 8.904l28.351 28.351a8.004 8.004 0 0 0 8.904 1.654l20.277-9.006a134.15 134.15 0 0 0 31.567 13.088l7.964 20.69a8 8 0 0 0 7.466 5.126h40.094a8 8 0 0 0 7.466-5.126l7.961-20.685c11.045-3 21.634-7.39 31.578-13.091l20.268 9.003a7.996 7.996 0 0 0 8.904-1.655l28.351-28.351a8.001 8.001 0 0 0 1.655-8.904l-9.005-20.276a134.091 134.091 0 0 0 13.087-31.567l20.69-7.964a8 8 0 0 0 5.126-7.466v-40.093a8 8 0 0 0-5.126-7.466l-20.684-7.962c-3-11.044-7.39-21.633-13.091-31.578l9.002-20.269a8 8 0 0 0-1.655-8.904l-28.351-28.35a8.003 8.003 0 0 0-8.904-1.655L336.523 46.9a134.133 134.133 0 0 0-31.568-13.088l-7.964-20.69a8 8 0 0 0-7.466-5.126h-40.093a8.001 8.001 0 0 0-7.466 5.126l-7.965 20.69A134.158 134.158 0 0 0 202.433 46.9l-20.276-9.005a8 8 0 0 0-8.904 1.655l-28.351 28.351a7.999 7.999 0 0 0-1.654 8.904l9.004 20.274a134.116 134.116 0 0 0-13.089 31.57l-20.688 7.964a8.001 8.001 0 0 0-5.126 7.466v40.093a8.004 8.004 0 0 0 5.128 7.466zm10.874-42.066 19.418-7.475a8.002 8.002 0 0 0 4.909-5.614 118.222 118.222 0 0 1 14.377-34.678 8.004 8.004 0 0 0 .5-7.442l-8.453-19.032 20.583-20.583 19.035 8.454a7.999 7.999 0 0 0 7.441-.5 118.242 118.242 0 0 1 34.676-14.376 7.998 7.998 0 0 0 5.613-4.909l7.476-19.421h29.107l7.476 19.421a8 8 0 0 0 5.613 4.909 118.242 118.242 0 0 1 34.676 14.376 8.008 8.008 0 0 0 7.441.5l19.034-8.454 20.583 20.582-8.451 19.027a7.998 7.998 0 0 0 .5 7.442 118.24 118.24 0 0 1 14.378 34.685 8 8 0 0 0 4.909 5.614l19.415 7.473v29.108l-19.421 7.476a8.002 8.002 0 0 0-4.909 5.614 118.238 118.238 0 0 1-14.376 34.675 7.999 7.999 0 0 0-.499 7.441l8.454 19.035-20.583 20.583-19.026-8.451a7.997 7.997 0 0 0-7.443.5 118.221 118.221 0 0 1-34.685 14.379 7.998 7.998 0 0 0-5.614 4.908l-7.473 19.415h-29.108l-7.475-19.421a7.997 7.997 0 0 0-5.613-4.908 118.26 118.26 0 0 1-34.676-14.377 7.993 7.993 0 0 0-7.441-.499l-19.035 8.454-20.583-20.582 8.451-19.027a8 8 0 0 0-.5-7.443 118.25 118.25 0 0 1-14.378-34.685 8 8 0 0 0-4.909-5.614l-19.415-7.473v-29.107zm227.763 86.111a7.997 7.997 0 0 0 7.954-8.852c-2.025-18.916-13.691-34.59-29.816-42.396 4.75-5.448 7.636-12.561 7.636-20.34 0-17.092-13.905-30.997-30.998-30.997-1.895 0-3.747.18-5.548.507a53.481 53.481 0 0 0-13.532-9.376c4.768-5.453 7.666-12.579 7.666-20.375 0-17.092-13.905-30.997-30.998-30.997s-30.998 13.905-30.998 30.997c0 7.795 2.899 14.922 7.666 20.375a53.481 53.481 0 0 0-13.532 9.376 31.017 31.017 0 0 0-5.548-.507c-17.092 0-30.997 13.905-30.997 30.997 0 7.779 2.886 14.891 7.636 20.34-16.126 7.806-27.792 23.481-29.816 42.397a8.001 8.001 0 0 0 7.954 8.851zm-101.208-60.24h27.149a31.032 31.032 0 0 0 5.449 8.962 52.907 52.907 0 0 0-19.021 15.521 53.421 53.421 0 0 0-19.053-15.49 31.063 31.063 0 0 0 5.476-8.993zm91.208 44.24h-68.128a54.045 54.045 0 0 0-.922-3.281c6.205-13.034 19.191-21.31 33.827-21.31 16.096.001 29.956 10.099 35.223 24.591zm-20.225-55.588c0 8.27-6.728 14.998-14.998 14.998s-14.997-6.728-14.997-14.998 6.728-14.997 14.997-14.997 14.998 6.728 14.998 14.997zm-72.407-60.24c0-8.27 6.728-14.997 14.998-14.997s14.998 6.728 14.998 14.997c0 8.267-6.725 14.994-14.991 14.997h-.012c-8.268-.003-14.993-6.73-14.993-14.997zm14.988 30.997h.018a37.457 37.457 0 0 1 21.243 6.621c-4.975 4.657-8.423 10.926-9.488 17.969h-23.528c-1.065-7.044-4.513-13.313-9.488-17.969a37.46 37.46 0 0 1 21.243-6.621zm-57.398 29.243c0-8.27 6.728-14.997 14.997-14.997s14.998 6.728 14.998 14.997-6.728 14.998-14.998 14.998-14.997-6.728-14.997-14.998zm14.997 30.998c16.096 0 29.956 10.098 35.223 24.59h-70.446c5.267-14.492 19.126-24.59 35.223-24.59z" fill="#ad1f24" opacity="1" data-original="#000000"></path></g></svg>