<svg xmlns="http://www.w3.org/2000/svg" version="1.1" xmlns:xlink="http://www.w3.org/1999/xlink" width="512" height="512" x="0" y="0" viewBox="0 0 60 60" style="enable-background:new 0 0 512 512" xml:space="preserve" class=""><g><g fill="#000" fill-rule="nonzero"><path d="M55.949 31.6A25.98 25.98 0 0 0 23.206 4.914a1 1 0 0 0 .529 1.928 23.982 23.982 0 0 1 29.521 29.069l-1.248-3.689a1.003 1.003 0 1 0-1.9.641l2.312 6.83a1 1 0 0 0 1.607.431l5.416-4.76a1 1 0 1 0-1.32-1.5l-2.945 2.589c.411-1.59.67-3.214.771-4.853z" fill="#9e1c20" opacity="1" data-original="#000000" class=""></path><path d="M49 30c0-10.493-8.507-19-19-19s-19 8.507-19 19 8.507 19 19 19c10.489-.012 18.988-8.511 19-19zm-35.949 1h5.977c.06 2.562.44 5.107 1.129 7.576a20.8 20.8 0 0 0-3.682 1.682A16.888 16.888 0 0 1 13.051 31zm3.424-11.258c1.17.68 2.403 1.243 3.682 1.682A30.825 30.825 0 0 0 19.028 29h-5.977a16.888 16.888 0 0 1 3.424-9.258zM46.949 29h-5.977a30.825 30.825 0 0 0-1.129-7.576 20.766 20.766 0 0 0 3.682-1.682A16.888 16.888 0 0 1 46.949 29zm-7.977 0H31v-6.031a31.132 31.132 0 0 0 6.906-.953c.643 2.275 1 4.62 1.066 6.984zM31 20.97v-7.852c2.542.56 4.8 3.219 6.259 7A29.3 29.3 0 0 1 31 20.97zm-2-7.852v7.852a29.3 29.3 0 0 1-6.259-.849c1.464-3.784 3.717-6.443 6.259-7.003zm0 9.851V29h-7.972a28.607 28.607 0 0 1 1.066-6.984c2.26.575 4.576.895 6.906.953zM21.028 31H29v6.031c-2.33.058-4.647.378-6.906.953-.643-2.275-1-4.62-1.066-6.984zM29 39.03v7.852c-2.542-.56-4.8-3.219-6.259-7A29.3 29.3 0 0 1 29 39.03zm2 7.852V39.03a29.3 29.3 0 0 1 6.259.849C35.8 43.663 33.542 46.322 31 46.882zm0-9.851V31h7.972a28.607 28.607 0 0 1-1.066 6.984A31.132 31.132 0 0 0 31 37.031zM40.972 31h5.977a16.888 16.888 0 0 1-3.424 9.258 20.8 20.8 0 0 0-3.682-1.682A30.825 30.825 0 0 0 40.972 31zm1.238-12.8c-.957.525-1.956.968-2.988 1.325a17.633 17.633 0 0 0-3.058-5.35A17.032 17.032 0 0 1 42.21 18.2zm-18.374-4.026a17.633 17.633 0 0 0-3.058 5.35A19.337 19.337 0 0 1 17.79 18.2a17.032 17.032 0 0 1 6.046-4.026zM17.79 41.8a19.337 19.337 0 0 1 2.988-1.325 17.633 17.633 0 0 0 3.058 5.35A17.032 17.032 0 0 1 17.79 41.8zm18.374 4.025a17.633 17.633 0 0 0 3.058-5.35c1.032.357 2.031.8 2.988 1.325a17.032 17.032 0 0 1-6.046 4.026z" fill="#9e1c20" opacity="1" data-original="#000000" class=""></path><path d="M2 16h12a2 2 0 0 0 2-2 8.02 8.02 0 0 0-3.6-6.679c.388-.713.594-1.51.6-2.321A5 5 0 0 0 3 5c.006.816.214 1.618.605 2.334A7.851 7.851 0 0 0 0 14a2 2 0 0 0 2 2zM8 2a3 3 0 1 1 0 6 3 3 0 0 1 0-6zM3.757 9.757A5.876 5.876 0 0 1 4.9 8.889a4.889 4.889 0 0 0 6.212 0A6 6 0 0 1 14 14H2a5.961 5.961 0 0 1 1.757-4.243zM56.4 51.321c.388-.713.594-1.51.6-2.321a5 5 0 0 0-10 0c.004.816.21 1.617.6 2.334A7.851 7.851 0 0 0 44 58a2 2 0 0 0 2 2h12a2 2 0 0 0 2-2 8.02 8.02 0 0 0-3.6-6.679zM52 46a3 3 0 1 1 0 6 3 3 0 0 1 0-6zm-6 12a5.961 5.961 0 0 1 1.757-4.243 5.876 5.876 0 0 1 1.14-.868 4.889 4.889 0 0 0 6.212-.005A6 6 0 0 1 58 58zM23.271 55.114a25.85 25.85 0 0 0 13.523-.028 1 1 0 0 0-.529-1.928A23.98 23.98 0 0 1 6.744 24.094l1.248 3.689a1.003 1.003 0 0 0 1.9-.641l-2.312-6.83a1 1 0 0 0-1.607-.431l-5.421 4.76a1 1 0 1 0 1.32 1.5l2.945-2.589a25.568 25.568 0 0 0-.762 4.794c-.764 12.354 7.267 23.54 19.216 26.768z" fill="#9e1c20" opacity="1" data-original="#000000" class=""></path></g></g></svg>