<svg xmlns="http://www.w3.org/2000/svg" version="1.1" xmlns:xlink="http://www.w3.org/1999/xlink" width="512" height="512" x="0" y="0" viewBox="0 0 682.667 682.667" style="enable-background:new 0 0 512 512" xml:space="preserve" class=""><g><defs><clipPath id="a" clipPathUnits="userSpaceOnUse"><path d="M0 512h512V0H0Z" fill="#ad1f24" opacity="1" data-original="#000000"></path></clipPath></defs><g clip-path="url(#a)" transform="matrix(1.33333 0 0 -1.33333 0 682.667)"><path d="M0 0c-18.923-23.243-44.148-39.914-72.95-48.211-9.415-2.713-14.849-12.543-12.137-21.959 2.558-8.879 11.447-14.217 20.347-12.521.538.102 1.076.23 1.612.384a181.969 181.969 0 0 1 41.494 17.748" style="stroke-width:20;stroke-linecap:round;stroke-linejoin:round;stroke-miterlimit:10;stroke-dasharray:none;stroke-opacity:1" transform="translate(205.637 416.86)" fill="none" stroke="#ad1f24" stroke-width="20" stroke-linecap="round" stroke-linejoin="round" stroke-miterlimit="10" stroke-dasharray="none" stroke-opacity="" data-original="#000000" opacity="1"></path><path d="m0 0 19.316 55.177c5.827-.905 11.68-1.37 17.513-1.37 26.296 0 52.126 9.103 72.888 26.349l2.381 1.979c7.399 6.147 8.921 17.135 3.042 24.748-6.172 7.994-17.686 9.215-25.389 2.815l-2.708-2.25a78.813 78.813 0 0 0-14.85-9.737c-20.449-10.316-45.023-4.975-60.604 11.813-7.624 8.214-18.523 13.43-30.804 13.43-19.146 0-35.876-12.934-40.696-31.464L-83.711 0Z" style="stroke-width:20;stroke-linecap:round;stroke-linejoin:round;stroke-miterlimit:10;stroke-dasharray:none;stroke-opacity:1" transform="translate(256.127 307.756)" fill="none" stroke="#ad1f24" stroke-width="20" stroke-linecap="round" stroke-linejoin="round" stroke-miterlimit="10" stroke-dasharray="none" stroke-opacity="" data-original="#000000" opacity="1"></path><path d="m0 0 57.051 57.051 42.497-42.497 88.587 88.587 21.425-21.425 17.344 86.184-86.184-17.344 18.732-18.732L99.548 71.92l-42.497 42.497-197.443-197.444 28.683-28.682 55.14 55.14" style="stroke-width:20;stroke-linecap:round;stroke-linejoin:round;stroke-miterlimit:10;stroke-dasharray:none;stroke-opacity:1" transform="translate(275.096 121.69)" fill="none" stroke="#ad1f24" stroke-width="20" stroke-linecap="round" stroke-linejoin="round" stroke-miterlimit="10" stroke-dasharray="none" stroke-opacity="" data-original="#000000" opacity="1"></path><path d="M0 0c0 19.692-15.963 35.655-35.655 35.655S-71.31 19.692-71.31 0s15.963-35.655 35.655-35.655S0-19.692 0 0Z" style="stroke-width:20;stroke-linecap:round;stroke-linejoin:round;stroke-miterlimit:10;stroke-dasharray:none;stroke-opacity:1" transform="translate(298.515 466.365)" fill="none" stroke="#ad1f24" stroke-width="20" stroke-linecap="round" stroke-linejoin="round" stroke-miterlimit="10" stroke-dasharray="none" stroke-opacity="" data-original="#000000" opacity="1"></path><path d="m0 0-6.162-16.157c-4.542-11.91 3.2-24.943 15.83-26.652l.467-.063c8.645-1.17 16.973 3.214 20.852 10.905 19.775 39.208 78.152 154.629 78.152 154.629h23.708l-12.09-76.012c-1.79-11.251 6.903-21.436 18.296-21.436v0a18.526 18.526 0 0 1 17.848 13.559l22.723 81.645c6.542 23.51-11.136 46.779-35.538 46.779h-10.824" style="stroke-width:20;stroke-linecap:round;stroke-linejoin:round;stroke-miterlimit:10;stroke-dasharray:none;stroke-opacity:1" transform="translate(108.653 140.559)" fill="none" stroke="#ad1f24" stroke-width="20" stroke-linecap="round" stroke-linejoin="round" stroke-miterlimit="10" stroke-dasharray="none" stroke-opacity="" data-original="#000000" opacity="1"></path><path d="m0 0-35.252-92.438" style="stroke-width:20;stroke-linecap:round;stroke-linejoin:round;stroke-miterlimit:10;stroke-dasharray:none;stroke-opacity:1" transform="translate(172.416 307.756)" fill="none" stroke="#ad1f24" stroke-width="20" stroke-linecap="round" stroke-linejoin="round" stroke-miterlimit="10" stroke-dasharray="none" stroke-opacity="" data-original="#000000" opacity="1"></path><path d="m0 0-73.906 73.906c-5.076 5.076-5.076 13.308 0 18.384l53.647 53.647c5.077 5.077 13.308 5.077 18.385 0l73.905-73.906c5.077-5.076 5.077-13.307 0-18.384L18.385 0C13.308-5.077 5.077-5.077 0 0Z" style="stroke-width:20;stroke-linecap:round;stroke-linejoin:round;stroke-miterlimit:10;stroke-dasharray:none;stroke-opacity:1" transform="translate(87.76 232.712)" fill="none" stroke="#ad1f24" stroke-width="20" stroke-linecap="round" stroke-linejoin="round" stroke-miterlimit="10" stroke-dasharray="none" stroke-opacity="" data-original="#000000" opacity="1"></path><path d="m0 0 33.671-33.671" style="stroke-width:20;stroke-linecap:round;stroke-linejoin:round;stroke-miterlimit:10;stroke-dasharray:none;stroke-opacity:1" transform="translate(40.678 351.826)" fill="none" stroke="#ad1f24" stroke-width="20" stroke-linecap="round" stroke-linejoin="round" stroke-miterlimit="10" stroke-dasharray="none" stroke-opacity="" data-original="#000000" opacity="1"></path><path d="m0 0-33.671 33.671" style="stroke-width:20;stroke-linecap:round;stroke-linejoin:round;stroke-miterlimit:10;stroke-dasharray:none;stroke-opacity:1" transform="translate(130.53 261.974)" fill="none" stroke="#ad1f24" stroke-width="20" stroke-linecap="round" stroke-linejoin="round" stroke-miterlimit="10" stroke-dasharray="none" stroke-opacity="" data-original="#000000" opacity="1"></path><path d="m0 0-3.058 3.058c-5.371 5.371-5.371 14.08 0 19.452L9.726 35.294l22.51-22.51L19.452 0C14.081-5.372 5.372-5.372 0 0Z" style="stroke-width:20;stroke-linecap:round;stroke-linejoin:round;stroke-miterlimit:10;stroke-dasharray:none;stroke-opacity:1" transform="translate(75.878 294.116)" fill="none" stroke="#ad1f24" stroke-width="20" stroke-linecap="round" stroke-linejoin="round" stroke-miterlimit="10" stroke-dasharray="none" stroke-opacity="" data-original="#000000" opacity="1"></path><path d="M0 0v0" style="stroke-width:20;stroke-linecap:round;stroke-linejoin:round;stroke-miterlimit:10;stroke-dasharray:none;stroke-opacity:1" transform="translate(247 93.216)" fill="none" stroke="#ad1f24" stroke-width="20" stroke-linecap="round" stroke-linejoin="round" stroke-miterlimit="10" stroke-dasharray="none" stroke-opacity="" data-original="#000000" opacity="1"></path><path d="M0 0v0" style="stroke-width:20;stroke-linecap:round;stroke-linejoin:round;stroke-miterlimit:10;stroke-dasharray:none;stroke-opacity:1" transform="translate(122.886 177.88)" fill="none" stroke="#ad1f24" stroke-width="20" stroke-linecap="round" stroke-linejoin="round" stroke-miterlimit="10" stroke-dasharray="none" stroke-opacity="" data-original="#000000" opacity="1"></path></g></g></svg>