<svg xmlns="http://www.w3.org/2000/svg" version="1.1" xmlns:xlink="http://www.w3.org/1999/xlink" width="512" height="512" x="0" y="0" viewBox="0 0 682.667 682.667" style="enable-background:new 0 0 512 512" xml:space="preserve" class=""><g><defs><clipPath id="a" clipPathUnits="userSpaceOnUse"><path d="M0 512h512V0H0Z" fill="#ad1f24" opacity="1" data-original="#000000"></path></clipPath></defs><g clip-path="url(#a)" transform="matrix(1.33333 0 0 -1.33333 0 682.667)"><path d="M0 0h-135.5c-11.046 0-20-8.954-20-20v-387.741c0-11.046 8.954-20 20-20h457c11.046 0 20 8.954 20 20V-20c0 11.046-8.954 20-20 20H186.418" style="stroke-width:15;stroke-linecap:round;stroke-linejoin:round;stroke-miterlimit:10;stroke-dasharray:none;stroke-opacity:1" transform="translate(163 435.241)" fill="none" stroke="#ad1f24" stroke-width="15" stroke-linecap="round" stroke-linejoin="round" stroke-miterlimit="10" stroke-dasharray="none" stroke-opacity="" data-original="#060606" opacity="1" class=""></path><path d="M0 0h166.628v63.241c0 11.046-8.954 20-20 20" style="stroke-width:15;stroke-linecap:round;stroke-linejoin:round;stroke-miterlimit:10;stroke-dasharray:none;stroke-opacity:1" transform="translate(337.872 352)" fill="none" stroke="#ad1f24" stroke-width="15" stroke-linecap="round" stroke-linejoin="round" stroke-miterlimit="10" stroke-dasharray="none" stroke-opacity="" data-original="#060606" opacity="1" class=""></path><path d="M0 0h170.204" style="stroke-width:15;stroke-linecap:round;stroke-linejoin:round;stroke-miterlimit:10;stroke-dasharray:none;stroke-opacity:1" transform="translate(9 352)" fill="none" stroke="#ad1f24" stroke-width="15" stroke-linecap="round" stroke-linejoin="round" stroke-miterlimit="10" stroke-dasharray="none" stroke-opacity="" data-original="#060606" opacity="1" class=""></path><path d="M0 0h-318.331c-19.661 0-35.598 15.938-35.598 35.598 0 19.661 15.937 35.598 35.598 35.598H0c19.661 0 35.598-15.937 35.598-35.598C35.598 15.938 19.661 0 0 0Z" style="stroke-width:15;stroke-linecap:round;stroke-linejoin:round;stroke-miterlimit:10;stroke-dasharray:none;stroke-opacity:1" transform="translate(415.166 71.01)" fill="none" stroke="#ad1f24" stroke-width="15" stroke-linecap="round" stroke-linejoin="round" stroke-miterlimit="10" stroke-dasharray="none" stroke-opacity="" data-original="#060606" opacity="1" class=""></path><path d="M0 0c9.652 0 9.668 15 0 15-9.651 0-9.667-15 0-15" style="fill-opacity:1;fill-rule:nonzero;stroke:none" transform="translate(121.15 99.109)" fill="#ad1f24" data-original="#060606" class="" opacity="1"></path><path d="M0 0c9.651 0 9.667 15 0 15-9.652 0-9.668-15 0-15" style="fill-opacity:1;fill-rule:nonzero;stroke:none" transform="translate(159.68 99.109)" fill="#ad1f24" data-original="#060606" class="" opacity="1"></path><path d="M0 0c9.652 0 9.667 15 0 15-9.652 0-9.668-15 0-15" style="fill-opacity:1;fill-rule:nonzero;stroke:none" transform="translate(198.208 99.109)" fill="#ad1f24" data-original="#060606" class="" opacity="1"></path><path d="M0 0c9.652 0 9.668 15 0 15-9.652 0-9.668-15 0-15" style="fill-opacity:1;fill-rule:nonzero;stroke:none" transform="translate(236.736 99.109)" fill="#ad1f24" data-original="#060606" class="" opacity="1"></path><path d="M0 0c9.652 0 9.668 15 0 15-9.652 0-9.668-15 0-15" style="fill-opacity:1;fill-rule:nonzero;stroke:none" transform="translate(275.264 99.109)" fill="#ad1f24" data-original="#060606" class="" opacity="1"></path><path d="M0 0c9.652 0 9.668 15 0 15-9.652 0-9.667-15 0-15" style="fill-opacity:1;fill-rule:nonzero;stroke:none" transform="translate(313.793 99.109)" fill="#ad1f24" data-original="#060606" class="" opacity="1"></path><path d="M0 0c9.652 0 9.668 15 0 15-9.651 0-9.667-15 0-15" style="fill-opacity:1;fill-rule:nonzero;stroke:none" transform="translate(352.32 99.109)" fill="#ad1f24" data-original="#060606" class="" opacity="1"></path><path d="M0 0c9.651 0 9.667 15 0 15-9.652 0-9.668-15 0-15" style="fill-opacity:1;fill-rule:nonzero;stroke:none" transform="translate(390.85 99.109)" fill="#ad1f24" data-original="#060606" class="" opacity="1"></path><path d="M0 0h25.868c19.661 0 35.598 15.938 35.598 35.598 0 19.66-15.937 35.598-35.598 35.598h-318.331c-19.661 0-35.598-15.938-35.598-35.598 0-19.66 15.937-35.598 35.598-35.598H-40" style="stroke-width:15;stroke-linecap:round;stroke-linejoin:round;stroke-miterlimit:10;stroke-dasharray:none;stroke-opacity:1" transform="translate(389.297 184.186)" fill="none" stroke="#ad1f24" stroke-width="15" stroke-linecap="round" stroke-linejoin="round" stroke-miterlimit="10" stroke-dasharray="none" stroke-opacity="" data-original="#060606" opacity="1" class=""></path><path d="M0 0c-14.318-16.711-22.969-38.422-22.969-62.155 0-52.79 42.795-95.585 95.585-95.585 52.79 0 95.585 42.795 95.585 95.585 0 52.79-42.795 95.585-95.585 95.585-15.546 0-30.223-3.714-43.198-10.299" style="stroke-width:15;stroke-linecap:round;stroke-linejoin:round;stroke-miterlimit:10;stroke-dasharray:none;stroke-opacity:1" transform="translate(183.384 471.07)" fill="none" stroke="#ad1f24" stroke-width="15" stroke-linecap="round" stroke-linejoin="round" stroke-miterlimit="10" stroke-dasharray="none" stroke-opacity="" data-original="#060606" opacity="1" class=""></path><path d="M0 0h-49.662c-5.523 0-10 4.478-10 10v38.705c0 5.523 4.477 10 10 10H0c5.523 0 10-4.477 10-10V10C10 4.478 5.523 0 0 0Z" style="stroke-width:15;stroke-linecap:round;stroke-linejoin:round;stroke-miterlimit:10;stroke-dasharray:none;stroke-opacity:1" transform="translate(280.831 359.431)" fill="none" stroke="#ad1f24" stroke-width="15" stroke-linecap="round" stroke-linejoin="round" stroke-miterlimit="10" stroke-dasharray="none" stroke-opacity="" data-original="#060606" opacity="1" class=""></path><path d="M0 0h-38.343v25.091c0 10.588 8.584 19.171 19.172 19.171C-8.583 44.262 0 35.679 0 25.091Z" style="stroke-width:15;stroke-linecap:round;stroke-linejoin:round;stroke-miterlimit:10;stroke-dasharray:none;stroke-opacity:1" transform="translate(275.171 418.136)" fill="none" stroke="#ad1f24" stroke-width="15" stroke-linecap="round" stroke-linejoin="round" stroke-miterlimit="10" stroke-dasharray="none" stroke-opacity="" data-original="#060606" opacity="1" class=""></path><path d="M0 0h269.699" style="stroke-width:15;stroke-linecap:round;stroke-linejoin:round;stroke-miterlimit:10;stroke-dasharray:none;stroke-opacity:1" transform="translate(121.15 219.784)" fill="none" stroke="#ad1f24" stroke-width="15" stroke-linecap="round" stroke-linejoin="round" stroke-miterlimit="10" stroke-dasharray="none" stroke-opacity="" data-original="#060606" opacity="1" class=""></path><path d="M0 0c9.652 0 9.668 15 0 15-9.652 0-9.668-15 0-15" style="fill-opacity:1;fill-rule:nonzero;stroke:none" transform="translate(256 381.284)" fill="#ad1f24" data-original="#060606" class="" opacity="1"></path></g></g></svg>