<svg xmlns="http://www.w3.org/2000/svg" version="1.1" xmlns:xlink="http://www.w3.org/1999/xlink" width="512" height="512" x="0" y="0" viewBox="0 0 100 100" style="enable-background:new 0 0 512 512" xml:space="preserve" class=""><g><path d="M57.076 58.013c2.326-2.002 3.833-4.93 3.833-8.232 0-6.015-4.894-10.91-10.909-10.91s-10.909 4.896-10.909 10.91c0 3.302 1.507 6.23 3.833 8.232-4.829 2.56-8.163 7.58-8.163 13.415 0 2.978 4.5 2.978 4.5 0 0-5.921 4.818-10.74 10.739-10.74s10.739 4.819 10.739 10.74c0 2.978 4.5 2.978 4.5 0 0-5.835-3.334-10.855-8.163-13.415zM43.591 49.78c0-3.533 2.875-6.41 6.409-6.41s6.409 2.877 6.409 6.41-2.876 6.408-6.409 6.408-6.409-2.875-6.409-6.408zM82.879 27.142c2.326-2.002 3.833-4.93 3.833-8.232C86.712 12.896 81.818 8 75.803 8s-10.909 4.896-10.909 10.91c0 3.299 1.504 6.225 3.826 8.227-1.267.67-2.475 1.461-3.529 2.484-2.136 2.077 1.011 5.3 3.135 3.229a10.682 10.682 0 0 1 7.477-3.032c5.921 0 10.739 4.819 10.739 10.74 0 2.978 4.5 2.978 4.5 0 0-5.835-3.334-10.856-8.163-13.416zM69.395 18.91c0-3.533 2.875-6.41 6.409-6.41s6.409 2.877 6.409 6.41-2.875 6.407-6.409 6.407-6.409-2.874-6.409-6.407zM31.667 32.844c2.154 2.073 5.262-1.171 3.132-3.234-1.052-1.019-2.256-1.806-3.519-2.473 2.322-2.002 3.825-4.927 3.825-8.226C35.105 12.896 30.211 8 24.197 8s-10.909 4.896-10.909 10.91c0 3.302 1.507 6.23 3.833 8.232-4.829 2.56-8.163 7.58-8.163 13.415 0 2.978 4.5 2.978 4.5 0 0-5.921 4.818-10.74 10.739-10.74 2.803 0 5.456 1.076 7.47 3.027zM17.788 18.91c0-3.533 2.875-6.41 6.409-6.41s6.409 2.877 6.409 6.41-2.875 6.407-6.409 6.407-6.409-2.874-6.409-6.407z" fill="#ad1f24" opacity="1" data-original="#000000"></path><path d="M72.886 73.274c6.577-10.45 5.34-24.446-3.752-33.536-10.55-10.553-27.718-10.553-38.268 0-10.551 10.55-10.551 27.718 0 38.268 5.275 5.276 12.205 7.913 19.134 7.913 5.012 0 10.015-1.4 14.401-4.16l8.439 8.438a6.007 6.007 0 0 0 8.484 0 6.006 6.006 0 0 0 0-8.484zm-38.838 1.549c-8.796-8.795-8.796-23.109 0-31.904 4.397-4.397 10.175-6.598 15.952-6.598s11.555 2.2 15.952 6.598c8.796 8.795 8.796 23.109 0 31.904-8.795 8.795-23.109 8.795-31.904 0zm41.973 12.191-8.002-8.001c1.413-1.266.861-.714 2.121-2.121l8.002 8.001c1.405 1.407-.724 3.524-2.121 2.121z" fill="#ad1f24" opacity="1" data-original="#000000"></path></g></svg>