<svg xmlns="http://www.w3.org/2000/svg" version="1.1" xmlns:xlink="http://www.w3.org/1999/xlink" width="512" height="512" x="0" y="0" viewBox="0 0 480 480.001" style="enable-background:new 0 0 512 512" xml:space="preserve" class=""><g><path d="M463.2 63.137a8.017 8.017 0 0 0-4.552-4.098L292.703.457c-4.164-1.473-8.734.715-10.207 4.879L244.801 112h-16.488V84.8a23.998 23.998 0 0 0-30.13-23.198L5.962 112.266v.144A7.884 7.884 0 0 0 0 120v336c0 13.254 10.746 24 24 24h224c13.254 0 24-10.746 24-24v-72.59l64.16 22.649c4.168 1.468 8.738-.715 10.207-4.883L463.543 69.25a7.983 7.983 0 0 0-.344-6.113zM202.265 77.03a8.014 8.014 0 0 1 6.925 1.395 8.005 8.005 0 0 1 3.121 6.344V112H69.688zM256 456a8 8 0 0 1-8 8H24a8 8 0 0 1-8-8V128h232a8 8 0 0 1 8 8zm65.762-297.543L332 153.602l4.879 10.207-38.871 110.007c-.703 2-.586 4.2.328 6.114l8.328 17.422-2.574 7.304-15.867-16.43a7.992 7.992 0 0 0-6.743-2.402l-9.48 1.2v-10.72l6.824-3.265a8.017 8.017 0 0 0 4.098-4.55l16-45.247zm15.086 53.398 16.242 26.098-2.778 7.863-19.433-17.015zM272 251.352v-21.985l7.871-.328zm13.602-38.559-13.602.559v-10.649l19.586-6.832zm48.336 175.512L272 366.44v-63.289l7.496-.937 22.106 22.867a7.999 7.999 0 0 0 5.757 2.398 7.49 7.49 0 0 0 1.696-.183 7.992 7.992 0 0 0 5.84-5.152l8-22.633c.707-2 .59-4.2-.329-6.11L314.2 276l10.946-31 23.503 20.602a8.003 8.003 0 0 0 5.274 1.984c.683 0 1.363-.09 2.023-.266a8.008 8.008 0 0 0 5.52-5.07l8-22.633a7.99 7.99 0 0 0-.754-6.887l-25.04-40.226 9.376-26.55a8.002 8.002 0 0 0-.328-6.122l-9.758-20.406a8.002 8.002 0 0 0-10.672-3.77l-20.418 9.762a7.984 7.984 0 0 0-4.086 4.55l-9.387 26.583L272 185.76V136a23.925 23.925 0 0 0-11.473-20.375l13.075-37.074 2.933-8.317 18.403-52 150.87 53.254zm0 0" fill="#9e1c20" opacity="1" data-original="#000000" class=""></path><path d="m397.055 122.137 5.324-15.09 13.719 4.84-5.325 15.09zM287.328 83.398l5.328-15.085 13.715 4.843-5.328 15.086zM369.621 112.453l5.328-15.09 13.715 4.844-5.328 15.086zM314.762 93.086 320.09 78l13.71 4.844-5.327 15.086zM342.191 102.762l5.329-15.086 13.714 4.844-5.328 15.085zM132.313 160c-44.184 0-80 35.816-80 80s35.816 80 80 80 80-35.816 80-80c-.047-44.16-35.836-79.95-80-80zm57.769 52.648-10.914-2.398c-4.8-1.059-9.602-1.898-14.45-2.625a236.043 236.043 0 0 0-2.628-14.45l-2.403-10.91a64.266 64.266 0 0 1 30.395 30.383zM68.312 240c.016-3.27.282-6.535.801-9.766l19.782-4.402c3.035-.672 6.09-1.23 9.152-1.758a218.961 218.961 0 0 0 0 31.856c-3.063-.528-6.117-1.09-9.152-1.762l-19.782-4.398a63.425 63.425 0 0 1-.8-9.77zm45.97-18.023a202.738 202.738 0 0 1 36.046 0 202.003 202.003 0 0 1 0 36.046 202.003 202.003 0 0 1-36.047 0 202.003 202.003 0 0 1 0-36.046zm52.261 2.097c3.066.528 6.121 1.086 9.152 1.758l19.785 4.402a57.749 57.749 0 0 1 0 19.536l-19.785 4.398c-3.03.672-6.086 1.234-9.152 1.77a217.97 217.97 0 0 0 0-31.864zm-24.469-47.273 4.399 19.793c.672 3.031 1.238 6.086 1.77 9.152a218.024 218.024 0 0 0-31.868 0c.531-3.066 1.09-6.121 1.77-9.152l4.398-19.793a58.333 58.333 0 0 1 19.531 0zm-37.12 5.406-2.403 10.914c-1.055 4.8-1.895 9.602-2.621 14.45a236.005 236.005 0 0 0-14.45 2.62l-10.914 2.403a64.303 64.303 0 0 1 30.387-30.36zM74.55 267.328l10.914 2.402c4.8 1.055 9.597 1.895 14.45 2.622a236.005 236.005 0 0 0 2.62 14.449l2.403 10.91a64.284 64.284 0 0 1-30.403-30.36zm48 35.824-4.399-19.793c-.68-3.023-1.238-6.086-1.77-9.144 5.298.387 10.618.648 15.938.648s10.625-.261 15.93-.648c-.531 3.058-1.098 6.12-1.77 9.144l-4.398 19.793a58.333 58.333 0 0 1-19.531 0zm37.12-5.406 2.403-10.914c1.063-4.8 1.895-9.598 2.63-14.45a237.09 237.09 0 0 0 14.448-2.62l10.91-2.403a64.245 64.245 0 0 1-30.398 30.41zM68.313 384h128v16h-128zM84.313 416h96v16h-96zM124.313 352h16v16h-16zM92.313 352h16v16h-16zM156.313 352h16v16h-16zm0 0" fill="#9e1c20" opacity="1" data-original="#000000" class=""></path></g></svg>