<svg xmlns="http://www.w3.org/2000/svg" version="1.1" xmlns:xlink="http://www.w3.org/1999/xlink" width="512" height="512" x="0" y="0" viewBox="0 0 128 128" style="enable-background:new 0 0 512 512" xml:space="preserve" class=""><g><path d="M26 110a2.16 2.16 0 0 1-.56-.08A2 2 0 0 1 24 108V69.13H2a2 2 0 0 1-2-2V20a2 2 0 0 1 2-2h50a2 2 0 0 1 2 2v47.09a2 2 0 0 1-.31 1.07l-26 40.91A2 2 0 0 1 26 110zM4 65.09h22a2 2 0 0 1 2 2v34L50 66.5V22H4zM100 110a2.16 2.16 0 0 1-.56-.08A2 2 0 0 1 98 108V69.13H76a2 2 0 0 1-2-2V20a2 2 0 0 1 2-2h50a2 2 0 0 1 2 2v47.09a2 2 0 0 1-.31 1.07l-26 40.91a2 2 0 0 1-1.69.93zM78 65.09h22a2 2 0 0 1 2 2v34l22-34.59V22H78z" fill="#ad1f24" opacity="1" data-original="#000000" class=""></path></g></svg>