<svg xmlns="http://www.w3.org/2000/svg" version="1.1" xmlns:xlink="http://www.w3.org/1999/xlink" width="512" height="512" x="0" y="0" viewBox="0 0 32 32" style="enable-background:new 0 0 512 512" xml:space="preserve" class=""><g><path d="M16.099 31.041H7.292a.5.5 0 0 1-.5-.5v-5.693a.895.895 0 0 1 .5-.803 1.793 1.793 0 0 1 .235-1.295 11.203 11.203 0 0 1 3.15-11.021c.014-.476-.094-1.261.262-1.636a1.288 1.288 0 0 1-.262-.781V2.255A1.298 1.298 0 0 1 11.973.958H23.91a1.298 1.298 0 0 1 1.296 1.297v7.057a1.29 1.29 0 0 1-.261.779 1.23 1.23 0 0 1 .263.762v7.155a1.254 1.254 0 0 1-1.252 1.252H17.01v.993a2.149 2.149 0 0 1-.804 1.68 1.152 1.152 0 0 0-.423.738 1.62 1.62 0 0 1 .315 1.374.896.896 0 0 1 .5.803v5.693a.5.5 0 0 1-.5.5zm-8.307-1h7.807v-5.087H7.792zm.497-6.087h6.813a4.213 4.213 0 0 0 .005-.492H8.284a4.11 4.11 0 0 0 .005.492zm.196-1.492h6.322c.073-1.022 1.19-1.277 1.204-2.209v-.993h-2.273a2.126 2.126 0 0 1-2.03 1.506.5.5 0 1 1 0-1 1.125 1.125 0 0 0 1.122-1.122 4.024 4.024 0 0 1 1.187-2.865l.409-.41a.693.693 0 0 0-.987-.974l-3.065 3.066c-.451.466-1.174-.255-.707-.707l1.008-1.008V13.2a10.072 10.072 0 0 0-2.19 9.263zm8.121-4.202h7.35a.256.256 0 0 0 .252-.252v-7.155a.248.248 0 0 0-.252-.243H11.93a.248.248 0 0 0-.253.243v3.89l1.061-1.06a1.693 1.693 0 0 1 2.4 2.388 3.494 3.494 0 0 0-1.284 2.18h2.657a.475.475 0 0 1 .095.01zM11.973 1.958a.297.297 0 0 0-.296.297v7.057a.297.297 0 0 0 .296.296H23.91a.296.296 0 0 0 .296-.296V2.255a.296.296 0 0 0-.296-.296zm5.64 13.794c-.293.068-.99-.829-1.366-1.161a.5.5 0 0 1 .738-.674l.628.628 1.286-1.286c.452-.465 1.173.255.707.707l-1.64 1.64a.5.5 0 0 1-.353.146zm5.723-6.941h-3.467a.5.5 0 0 1 0-1h3.467a.5.5 0 0 1 0 1zm-4.675 0h-.995a.5.5 0 0 1 0-1h.995a.5.5 0 0 1 0 1zm-2.365-.855h-3.704c-1.15-.18-.105-2.127.522-2.438a1.408 1.408 0 1 1 2.658 0c.627.307 1.677 2.259.524 2.438zm-3.107-1h2.51a1.36 1.36 0 0 0-.597-.68 1.43 1.43 0 0 1-1.317.002 1.359 1.359 0 0 0-.596.678zm1.015-1.596a.41.41 0 0 0 .24.06.399.399 0 1 0 0-.797.405.405 0 0 0-.24.737zm9.132 1.778h-3.467a.5.5 0 0 1 0-1h3.467a.5.5 0 0 1 0 1zm-4.675 0h-.995a.5.5 0 0 1 0-1h.995a.5.5 0 0 1 0 1zm4.675-1.673h-5.67a.5.5 0 0 1-.5-.5v-1.4a.5.5 0 0 1 .5-.5h5.67a.5.5 0 0 1 .5.5v1.4a.5.5 0 0 1-.5.5zm-5.17-1h4.67v-.4h-4.67z" data-name="visa control" fill="#9e1c20" opacity="1" data-original="#000000" class=""></path></g></svg>