<svg xmlns="http://www.w3.org/2000/svg" version="1.1" xmlns:xlink="http://www.w3.org/1999/xlink" width="512" height="512" x="0" y="0" viewBox="0 0 14.857 14.817" style="enable-background:new 0 0 512 512" xml:space="preserve" class=""><g><path d="M4.105.035a.82.82 0 0 0-.817.816v2.896a.265.265 0 0 0 .531 0V.85a.28.28 0 0 1 .286-.286h10.029a.28.28 0 0 1 .286.286v10.846h-1.835a.818.818 0 0 0-.816.813v1.835H8.854a.265.265 0 1 0 0 .53h3.445c.07 0 .138-.027.188-.076l2.384-2.387a.265.265 0 0 0 .079-.185V.85a.82.82 0 0 0-.816-.816zm6.34 1.327A2.456 2.456 0 0 0 7.99 3.813a2.457 2.457 0 0 0 2.454 2.453 2.457 2.457 0 0 0 2.453-2.453 2.456 2.456 0 0 0-2.453-2.451zm0 .528a1.92 1.92 0 0 1 1.922 1.923c0 1.065-.857 1.923-1.922 1.923s-1.923-.858-1.923-1.923a1.92 1.92 0 0 1 1.923-1.923zm.89 1.142-.973 1.17-.585-.598a.265.265 0 0 0-.379.37l.79.81c.11.112.293.104.394-.016l1.162-1.395a.265.265 0 0 0-.036-.374.268.268 0 0 0-.373.033zM4.053 4.588c-.988 0-1.813.758-1.813 1.71 0 .689.218 1.278.42 1.969.187.636.368 1.367.396 2.37h-.298c-.451 0-.793.398-.793.852v.26H1.03c-.544 0-.962.484-.962 1.041v.774c0 .147.12.265.266.265h.242v.55c0 .28.242.496.513.496h5.927a.51.51 0 0 0 .513-.496v-.55h.242a.265.265 0 0 0 .264-.265v-.774c0-.557-.418-1.04-.962-1.04h-.87v-.261c0-.454-.343-.852-.794-.852h-.357a8.85 8.85 0 0 1 .393-2.37c.202-.69.419-1.28.419-1.97 0-.95-.823-1.71-1.812-1.71zm0 .53c.722 0 1.284.535 1.284 1.18 0 .574-.192 1.112-.399 1.82a10.224 10.224 0 0 0-.381 2.519H3.55a10.2 10.2 0 0 0-.382-2.518c-.207-.709-.399-1.247-.399-1.821 0-.645.562-1.18 1.283-1.18zm4.271 2.066a.272.272 0 1 0 0 .544.272.272 0 0 0 0-.544zm1.06.008a.265.265 0 1 0 0 .53h3.709a.265.265 0 1 0 0-.53zm-2.65 1.317a.272.272 0 1 0 0 .544.272.272 0 0 0 0-.544zm1.06.006a.265.265 0 0 0 0 .531h5.299a.265.265 0 1 0 0-.53zm.53 1.32a.272.272 0 1 0 0 .543.272.272 0 0 0 0-.544zm1.06.005a.265.265 0 1 0 0 .53h3.709a.265.265 0 1 0 0-.53zm-6.626 1.327H5.41c.135 0 .263.124.263.322v.26H4.085a.265.265 0 1 0 0 .53h2.989c.228 0 .432.21.432.511v.508H.6v-.508c0-.301.204-.51.432-.51h1.994a.265.265 0 0 0 0-.53h-.53v-.261c0-.198.128-.322.263-.322zm9.827 1.06h1.725L12.3 14.235V12.51c0-.163.123-.283.286-.283zM1.107 13.829H7v.516H1.107z" fill="#9e1c20" opacity="1" data-original="#000000" class=""></path></g></svg>